<svg width="17" height="21" viewBox="0 0 17 21" fill="none" xmlns="http://www.w3.org/2000/svg">
<g clip-path="url(#clip0_404_2776)">
<path fill-rule="evenodd" clip-rule="evenodd" d="M8.47402 19.5644C8.86921 19.5644 15.9305 12.0198 15.9305 7.90175C15.9305 3.78367 12.5921 0.445312 8.47402 0.445312C4.35594 0.445312 1.01758 3.78367 1.01758 7.90175C1.01758 12.0198 8.07884 19.5644 8.47402 19.5644ZM8.47403 11.6312C10.5619 11.6312 12.2545 9.93863 12.2545 7.85076C12.2545 5.76289 10.5619 4.07034 8.47403 4.07034C6.38617 4.07034 4.69362 5.76289 4.69362 7.85076C4.69362 9.93863 6.38617 11.6312 8.47403 11.6312Z" fill="#1DAEEF"/>
<path fill-rule="evenodd" clip-rule="evenodd" d="M1.01758 7.90175C1.01758 12.0198 8.07884 19.5644 8.47402 19.5644V11.6312C6.38616 11.6311 4.69362 9.93862 4.69362 7.85076C4.69362 5.7629 6.38616 4.07035 8.47402 4.07034V0.445312C4.35594 0.445312 1.01758 3.78367 1.01758 7.90175Z" fill="#3EC3FF"/>
</g>
<defs>
<clipPath id="clip0_404_2776">
<rect width="16" height="20" fill="white" transform="translate(0.912109 0.25)"/>
</clipPath>
</defs>
</svg>
