<svg width="17" height="21" viewBox="0 0 17 21" fill="none" xmlns="http://www.w3.org/2000/svg">
<g clip-path="url(#clip0_404_924)">
<path fill-rule="evenodd" clip-rule="evenodd" d="M7.86855 19.4472C8.26374 19.4472 15.325 11.9026 15.325 7.78456C15.325 3.66648 11.9866 0.328125 7.86855 0.328125C3.75047 0.328125 0.412109 3.66648 0.412109 7.78456C0.412109 11.9026 7.47337 19.4472 7.86855 19.4472ZM7.86856 11.514C9.95643 11.514 11.649 9.82144 11.649 7.73357C11.649 5.64571 9.95643 3.95316 7.86856 3.95316C5.7807 3.95316 4.08815 5.64571 4.08815 7.73357C4.08815 9.82144 5.7807 11.514 7.86856 11.514Z" fill="#1DAEEF"/>
<path fill-rule="evenodd" clip-rule="evenodd" d="M0.412109 7.78456C0.412109 11.9026 7.47337 19.4472 7.86855 19.4472V11.514C5.78069 11.5139 4.08815 9.82143 4.08815 7.73357C4.08815 5.64571 5.78069 3.95317 7.86855 3.95316V0.328125C3.75047 0.328125 0.412109 3.66648 0.412109 7.78456Z" fill="#3EC3FF"/>
</g>
<defs>
<clipPath id="clip0_404_924">
<rect width="16" height="20" fill="white" transform="translate(0.306641 0.132812)"/>
</clipPath>
</defs>
</svg>
