<svg width="17" height="21" viewBox="0 0 17 21" fill="none" xmlns="http://www.w3.org/2000/svg">
<g clip-path="url(#clip0_404_2688)">
<path fill-rule="evenodd" clip-rule="evenodd" d="M8.06972 19.7539C8.46491 19.7539 15.5262 12.2093 15.5262 8.09121C15.5262 3.97313 12.1878 0.634766 8.06972 0.634766C3.95164 0.634766 0.613281 3.97313 0.613281 8.09121C0.613281 12.2093 7.67454 19.7539 8.06972 19.7539ZM8.06973 11.8207C10.1576 11.8207 11.8502 10.1281 11.8502 8.04022C11.8502 5.95235 10.1576 4.2598 8.06973 4.2598C5.98187 4.2598 4.28932 5.95235 4.28932 8.04022C4.28932 10.1281 5.98187 11.8207 8.06973 11.8207Z" fill="#1DAEEF"/>
<path fill-rule="evenodd" clip-rule="evenodd" d="M0.613281 8.09121C0.613281 12.2093 7.67454 19.7539 8.06972 19.7539V11.8207C5.98186 11.8206 4.28932 10.1281 4.28932 8.04022C4.28932 5.95236 5.98186 4.25981 8.06972 4.2598V0.634766C3.95164 0.634766 0.613281 3.97313 0.613281 8.09121Z" fill="#3EC3FF"/>
</g>
<defs>
<clipPath id="clip0_404_2688">
<rect width="16" height="20" fill="white" transform="translate(0.507812 0.439453)"/>
</clipPath>
</defs>
</svg>
