<svg width="17" height="21" viewBox="0 0 17 21" fill="none" xmlns="http://www.w3.org/2000/svg">
<g clip-path="url(#clip0_404_3165)">
<path fill-rule="evenodd" clip-rule="evenodd" d="M8.34706 20.0996C8.74225 20.0996 15.8035 12.555 15.8035 8.43691C15.8035 4.31883 12.4651 0.980469 8.34706 0.980469C4.22898 0.980469 0.890625 4.31883 0.890625 8.43691C0.890625 12.555 7.95188 20.0996 8.34706 20.0996ZM8.34707 12.1664C10.4349 12.1664 12.1275 10.4738 12.1275 8.38592C12.1275 6.29805 10.4349 4.6055 8.34707 4.6055C6.25921 4.6055 4.56666 6.29805 4.56666 8.38592C4.56666 10.4738 6.25921 12.1664 8.34707 12.1664Z" fill="#1DAEEF"/>
<path fill-rule="evenodd" clip-rule="evenodd" d="M0.890625 8.43691C0.890625 12.555 7.95188 20.0996 8.34706 20.0996V12.1664C6.2592 12.1663 4.56666 10.4738 4.56666 8.38592C4.56666 6.29806 6.2592 4.60551 8.34706 4.6055V0.980469C4.22898 0.980469 0.890625 4.31883 0.890625 8.43691Z" fill="#3EC3FF"/>
</g>
<defs>
<clipPath id="clip0_404_3165">
<rect width="16" height="20" fill="white" transform="translate(0.785156 0.785156)"/>
</clipPath>
</defs>
</svg>
