<svg width="17" height="21" viewBox="0 0 17 21" fill="none" xmlns="http://www.w3.org/2000/svg">
<g clip-path="url(#clip0_404_3041)">
<path fill-rule="evenodd" clip-rule="evenodd" d="M8.43495 19.7226C8.83014 19.7226 15.8914 12.178 15.8914 8.05996C15.8914 3.94188 12.553 0.603516 8.43495 0.603516C4.31687 0.603516 0.978516 3.94188 0.978516 8.05996C0.978516 12.178 8.03977 19.7226 8.43495 19.7226ZM8.43496 11.7894C10.5228 11.7894 12.2154 10.0968 12.2154 8.00897C12.2154 5.9211 10.5228 4.22855 8.43496 4.22855C6.3471 4.22855 4.65455 5.9211 4.65455 8.00897C4.65455 10.0968 6.3471 11.7894 8.43496 11.7894Z" fill="#1DAEEF"/>
<path fill-rule="evenodd" clip-rule="evenodd" d="M0.978516 8.05996C0.978516 12.178 8.03977 19.7226 8.43495 19.7226V11.7894C6.34709 11.7893 4.65455 10.0968 4.65455 8.00897C4.65455 5.92111 6.34709 4.22856 8.43495 4.22855V0.603516C4.31687 0.603516 0.978516 3.94188 0.978516 8.05996Z" fill="#3EC3FF"/>
</g>
<defs>
<clipPath id="clip0_404_3041">
<rect width="16" height="20" fill="white" transform="translate(0.873047 0.408203)"/>
</clipPath>
</defs>
</svg>
