<svg width="17" height="20" viewBox="0 0 17 20" fill="none" xmlns="http://www.w3.org/2000/svg">
<g clip-path="url(#clip0_404_951)">
<path fill-rule="evenodd" clip-rule="evenodd" d="M8.05214 19.3144C8.44733 19.3144 15.5086 11.7698 15.5086 7.65175C15.5086 3.53367 12.1702 0.195312 8.05214 0.195312C3.93406 0.195312 0.595703 3.53367 0.595703 7.65175C0.595703 11.7698 7.65696 19.3144 8.05214 19.3144ZM8.05215 11.3812C10.14 11.3812 11.8326 9.68863 11.8326 7.60076C11.8326 5.51289 10.14 3.82034 8.05215 3.82034C5.96429 3.82034 4.27174 5.51289 4.27174 7.60076C4.27174 9.68863 5.96429 11.3812 8.05215 11.3812Z" fill="#1DAEEF"/>
<path fill-rule="evenodd" clip-rule="evenodd" d="M0.595703 7.65175C0.595703 11.7698 7.65696 19.3144 8.05214 19.3144V11.3812C5.96428 11.3811 4.27174 9.68862 4.27174 7.60076C4.27174 5.5129 5.96428 3.82035 8.05214 3.82034V0.195312C3.93406 0.195312 0.595703 3.53367 0.595703 7.65175Z" fill="#3EC3FF"/>
</g>
<defs>
<clipPath id="clip0_404_951">
<rect width="16" height="20" fill="white" transform="translate(0.490234)"/>
</clipPath>
</defs>
</svg>
