<svg width="16" height="21" viewBox="0 0 16 21" fill="none" xmlns="http://www.w3.org/2000/svg">
<g clip-path="url(#clip0_404_3020)">
<path fill-rule="evenodd" clip-rule="evenodd" d="M7.56191 20.1875C7.9571 20.1875 15.0184 12.6429 15.0184 8.5248C15.0184 4.40672 11.68 1.06836 7.56191 1.06836C3.44383 1.06836 0.105469 4.40672 0.105469 8.5248C0.105469 12.6429 7.16673 20.1875 7.56191 20.1875ZM7.56192 12.2543C9.64979 12.2543 11.3424 10.5617 11.3424 8.47381C11.3424 6.38594 9.64979 4.69339 7.56192 4.69339C5.47406 4.69339 3.78151 6.38594 3.78151 8.47381C3.78151 10.5617 5.47406 12.2543 7.56192 12.2543Z" fill="#1DAEEF"/>
<path fill-rule="evenodd" clip-rule="evenodd" d="M0.105469 8.5248C0.105469 12.6429 7.16673 20.1875 7.56191 20.1875V12.2543C5.47405 12.2542 3.78151 10.5617 3.78151 8.47381C3.78151 6.38595 5.47405 4.6934 7.56191 4.69339V1.06836C3.44383 1.06836 0.105469 4.40672 0.105469 8.5248Z" fill="#3EC3FF"/>
</g>
<defs>
<clipPath id="clip0_404_3020">
<rect width="16" height="20" fill="white" transform="translate(0 0.873047)"/>
</clipPath>
</defs>
</svg>
