<svg width="17" height="21" viewBox="0 0 17 21" fill="none" xmlns="http://www.w3.org/2000/svg">
<g clip-path="url(#clip0_404_3045)">
<path fill-rule="evenodd" clip-rule="evenodd" d="M7.74159 19.9843C8.13678 19.9843 15.198 12.4397 15.198 8.32167C15.198 4.20359 11.8596 0.865234 7.74159 0.865234C3.62351 0.865234 0.285156 4.20359 0.285156 8.32167C0.285156 12.4397 7.34641 19.9843 7.74159 19.9843ZM7.7416 12.0511C9.82947 12.0511 11.522 10.3586 11.522 8.27068C11.522 6.18281 9.82947 4.49026 7.7416 4.49026C5.65374 4.49026 3.96119 6.18281 3.96119 8.27068C3.96119 10.3586 5.65374 12.0511 7.7416 12.0511Z" fill="#1DAEEF"/>
<path fill-rule="evenodd" clip-rule="evenodd" d="M0.285156 8.32167C0.285156 12.4397 7.34641 19.9843 7.74159 19.9843V12.0511C5.65373 12.051 3.96119 10.3585 3.96119 8.27068C3.96119 6.18282 5.65373 4.49027 7.74159 4.49026V0.865234C3.62351 0.865234 0.285156 4.20359 0.285156 8.32167Z" fill="#3EC3FF"/>
</g>
<defs>
<clipPath id="clip0_404_3045">
<rect width="16" height="20" fill="white" transform="translate(0.179688 0.669922)"/>
</clipPath>
</defs>
</svg>
