<svg width="17" height="21" viewBox="0 0 17 21" fill="none" xmlns="http://www.w3.org/2000/svg">
<g clip-path="url(#clip0_404_3049)">
<path fill-rule="evenodd" clip-rule="evenodd" d="M7.94277 20.291C8.33796 20.291 15.3992 12.7464 15.3992 8.62831C15.3992 4.51023 12.0608 1.17188 7.94277 1.17188C3.82469 1.17188 0.486328 4.51023 0.486328 8.62831C0.486328 12.7464 7.54759 20.291 7.94277 20.291ZM7.94278 12.3578C10.0306 12.3578 11.7232 10.6652 11.7232 8.57732C11.7232 6.48946 10.0306 4.79691 7.94278 4.79691C5.85492 4.79691 4.16237 6.48946 4.16237 8.57732C4.16237 10.6652 5.85492 12.3578 7.94278 12.3578Z" fill="#1DAEEF"/>
<path fill-rule="evenodd" clip-rule="evenodd" d="M0.486328 8.62831C0.486328 12.7464 7.54759 20.291 7.94277 20.291V12.3578C5.85491 12.3577 4.16237 10.6652 4.16237 8.57732C4.16237 6.48946 5.85491 4.79692 7.94277 4.79691V1.17188C3.82469 1.17188 0.486328 4.51023 0.486328 8.62831Z" fill="#3EC3FF"/>
</g>
<defs>
<clipPath id="clip0_404_3049">
<rect width="16" height="20" fill="white" transform="translate(0.380859 0.976562)"/>
</clipPath>
</defs>
</svg>
