<svg width="17" height="21" viewBox="0 0 17 21" fill="none" xmlns="http://www.w3.org/2000/svg">
<g clip-path="url(#clip0_404_2140)">
<path fill-rule="evenodd" clip-rule="evenodd" d="M7.92519 19.8515C8.32038 19.8515 15.3816 12.3069 15.3816 8.18886C15.3816 4.07078 12.0432 0.732422 7.92519 0.732422C3.80711 0.732422 0.46875 4.07078 0.46875 8.18886C0.46875 12.3069 7.53001 19.8515 7.92519 19.8515ZM7.9252 11.9183C10.0131 11.9183 11.7056 10.2257 11.7056 8.13787C11.7056 6.05 10.0131 4.35745 7.9252 4.35745C5.83734 4.35745 4.14479 6.05 4.14479 8.13787C4.14479 10.2257 5.83734 11.9183 7.9252 11.9183Z" fill="#1DAEEF"/>
<path fill-rule="evenodd" clip-rule="evenodd" d="M0.46875 8.18886C0.46875 12.3069 7.53001 19.8515 7.92519 19.8515V11.9183C5.83733 11.9182 4.14479 10.2257 4.14479 8.13787C4.14479 6.05001 5.83733 4.35746 7.92519 4.35745V0.732422C3.80711 0.732422 0.46875 4.07078 0.46875 8.18886Z" fill="#3EC3FF"/>
</g>
<defs>
<clipPath id="clip0_404_2140">
<rect width="16" height="20" fill="white" transform="translate(0.363281 0.537109)"/>
</clipPath>
</defs>
</svg>
