<svg width="73" height="75" viewBox="0 0 73 75" fill="none" xmlns="http://www.w3.org/2000/svg">
<path d="M0.808594 18.8132V53.8513L36.2528 74.0102M0.808594 18.8132L36.2528 37.0522M0.808594 18.8132L13.0491 12.4768M36.2528 74.0102V37.0522M36.2528 74.0102L72.1759 53.8513V18.8132M36.2528 37.0522L48.7327 30.7158M72.1759 18.8132L36.2528 0.574219L23.8657 6.93871M72.1759 18.8132L59.6691 25.1777M13.0491 12.4768L48.7327 30.7158M13.0491 12.4768L23.8657 6.93871M48.7327 30.7158L59.6691 25.1777M48.7327 30.7158L49.0997 44.782C49.1052 44.9905 49.3808 45.0608 49.4855 44.8804L55.1576 35.1001L59.2875 41.6218C59.3984 41.7969 59.6691 41.7183 59.6691 41.5111V25.1777M59.6691 25.1777L23.8657 6.93871" stroke="black" stroke-width="2.41923"/>
</svg>
