<svg width="23" height="22" viewBox="0 0 23 22" fill="none" xmlns="http://www.w3.org/2000/svg">
<path d="M3.42188 1.91373H19.938V3.74168H3.42188V1.91373ZM7.09929 8.32233H8.92725V11.075H7.09929V8.32233ZM10.7552 5.56964H12.6047V11.075H10.7552V5.56964ZM14.4326 7.4191H16.2606V11.075H14.4326V7.4191ZM18.11 12.9245H5.24983V4.66641H3.42188V13.8277C3.42188 14.0858 3.51148 14.3044 3.69069 14.4836C3.8699 14.6628 4.08854 14.7524 4.34661 14.7524H10.7552V16.6234L7.87349 18.86L9.05628 20.2578L11.6799 18.2363L14.3036 20.2578L15.4864 18.86L12.6047 16.6234V14.7524H19.0133C19.2713 14.7524 19.49 14.6628 19.6692 14.4836C19.8484 14.3044 19.938 14.0858 19.938 13.8277V4.66641H18.11V12.9245Z" fill="#005AFF"/>
</svg>
