<svg width="21" height="21" viewBox="0 0 21 21" fill="none" xmlns="http://www.w3.org/2000/svg">
<path d="M16.0947 9.51583C16.0947 8.5544 15.912 7.65066 15.5467 6.80461C15.1813 5.95855 14.6814 5.22146 14.0468 4.59333C13.4123 3.9652 12.672 3.46846 11.8259 3.10312C10.9799 2.73778 10.0761 2.55511 9.11472 2.55511C8.15329 2.55511 7.24955 2.73778 6.4035 3.10312C5.55744 3.46846 4.81714 3.9652 4.1826 4.59333C3.54806 5.22146 3.04812 5.95855 2.68278 6.80461C2.31744 7.65066 2.13477 8.5544 2.13477 9.51583C2.13477 10.4773 2.31744 11.3842 2.68278 12.2367C3.04812 13.0891 3.54806 13.8294 4.1826 14.4576C4.81714 15.0857 5.55744 15.5824 6.4035 15.9478C7.24955 16.3131 8.15329 16.4958 9.11472 16.4958C10.0761 16.4958 10.9799 16.3131 11.8259 15.9478C12.672 15.5824 13.4123 15.0857 14.0468 14.4576C14.6814 13.8294 15.1813 13.0891 15.5467 12.2367C15.912 11.3842 16.0947 10.4773 16.0947 9.51583ZM9.11472 14.8614C8.38403 14.8614 7.69501 14.7203 7.04765 14.4383C6.40029 14.1563 5.83305 13.7749 5.34593 13.2942C4.85881 12.8135 4.47744 12.2495 4.20183 11.6021C3.92622 10.9548 3.78842 10.2593 3.78842 9.51583C3.78842 8.78515 3.92622 8.09612 4.20183 7.44876C4.47744 6.8014 4.85881 6.23737 5.34593 5.75665C5.83305 5.27594 6.40029 4.89458 7.04765 4.61256C7.69501 4.33054 8.38403 4.18953 9.11472 4.18953C9.8454 4.18953 10.5344 4.33054 11.1818 4.61256C11.8291 4.89458 12.3964 5.27594 12.8835 5.75665C13.3706 6.23737 13.752 6.8014 14.0276 7.44876C14.3032 8.09612 14.441 8.78515 14.441 9.51583C14.441 10.2593 14.3032 10.9548 14.0276 11.6021C13.752 12.2495 13.3706 12.8135 12.8835 13.2942C12.3964 13.7749 11.8291 14.1563 11.1818 14.4383C10.5344 14.7203 9.8454 14.8614 9.11472 14.8614ZM14.018 15.6113L15.2102 14.4383L18.5367 17.7649L17.3638 18.957L14.018 15.6113Z" fill="white"/>
</svg>
