<svg width="20" height="21" viewBox="0 0 20 21" fill="none" xmlns="http://www.w3.org/2000/svg">
<path d="M8.98541 7.19219H10.6332V13.7291H8.98541V7.19219ZM13.0857 14.5534C13.0857 15.448 12.7663 16.2148 12.1277 16.8538C11.489 17.4928 10.7162 17.8123 9.8093 17.8123C8.90238 17.8123 8.12959 17.4928 7.49092 16.8538C6.85225 16.2148 6.53291 15.448 6.53291 14.5534V11.2754H4.9043V14.5534C4.9043 15.2308 5.03203 15.8666 5.2875 16.4608C5.54297 17.0551 5.89424 17.5727 6.34131 18.0136C6.78838 18.4545 7.3089 18.806 7.90286 19.068C8.49683 19.3299 9.1323 19.4609 9.8093 19.4609C10.4863 19.4609 11.1218 19.3299 11.7157 19.068C12.3097 18.806 12.8302 18.4545 13.2773 18.0136C13.7244 17.5727 14.0756 17.0551 14.3311 16.4608C14.5866 15.8666 14.7143 15.2308 14.7143 14.5534V11.2754H13.0857V14.5534ZM9.8093 1.46038C9.1323 1.46038 8.49683 1.58818 7.90286 1.84378C7.3089 2.09938 6.78838 2.45083 6.34131 2.89813C5.89424 3.34542 5.54297 3.86621 5.2875 4.46047C5.03203 5.05474 4.9043 5.69054 4.9043 6.36788V9.64594H6.53291V6.36788C6.53291 5.46051 6.85225 4.68732 7.49092 4.04832C8.12959 3.40932 8.90238 3.08982 9.8093 3.08982C10.7162 3.08982 11.489 3.40932 12.1277 4.04832C12.7663 4.68732 13.0857 5.46051 13.0857 6.36788V9.64594H14.7143V6.36788C14.7143 5.69054 14.5866 5.05474 14.3311 4.46047C14.0756 3.86621 13.7244 3.34542 13.2773 2.89813C12.8302 2.45083 12.3097 2.09938 11.7157 1.84378C11.1218 1.58818 10.4863 1.46038 9.8093 1.46038Z" fill="#AAAAAA"/>
</svg>
