<svg width="20" height="21" viewBox="0 0 20 21" fill="none" xmlns="http://www.w3.org/2000/svg">
<path d="M8.9914 7.66094H10.64V14.1979H8.9914V7.66094ZM13.0938 15.0222C13.0938 15.9168 12.7743 16.6836 12.1353 17.3226C11.4963 17.9616 10.7231 18.2811 9.8157 18.2811C8.90833 18.2811 8.13514 17.9616 7.49614 17.3226C6.85715 16.6836 6.53765 15.9168 6.53765 15.0222V11.7441H4.9082V15.0222C4.9082 15.6995 5.036 16.3353 5.2916 16.9296C5.5472 17.5239 5.89865 18.0415 6.34595 18.4824C6.79325 18.9233 7.31403 19.2747 7.9083 19.5367C8.50256 19.7987 9.13837 19.9297 9.8157 19.9297C10.493 19.9297 11.1288 19.7987 11.7231 19.5367C12.3174 19.2747 12.8382 18.9233 13.2855 18.4824C13.7328 18.0415 14.0842 17.5239 14.3398 16.9296C14.5954 16.3353 14.7232 15.6995 14.7232 15.0222V11.7441H13.0938V15.0222ZM9.8157 1.92913C9.13837 1.92913 8.50256 2.05693 7.9083 2.31253C7.31403 2.56813 6.79325 2.91958 6.34595 3.36688C5.89865 3.81417 5.5472 4.33496 5.2916 4.92922C5.036 5.52349 4.9082 6.15929 4.9082 6.83663V10.1147H6.53765V6.83663C6.53765 5.92926 6.85715 5.15607 7.49614 4.51707C8.13514 3.87807 8.90833 3.55857 9.8157 3.55857C10.7231 3.55857 11.4963 3.87807 12.1353 4.51707C12.7743 5.15607 13.0938 5.92926 13.0938 6.83663V10.1147H14.7232V6.83663C14.7232 6.15929 14.5954 5.52349 14.3398 4.92922C14.0842 4.33496 13.7328 3.81417 13.2855 3.36688C12.8382 2.91958 12.3174 2.56813 11.7231 2.31253C11.1288 2.05693 10.493 1.92913 9.8157 1.92913Z" fill="#AAAAAA"/>
</svg>
