<svg width="24" height="24" viewBox="0 0 24 24" fill="none" xmlns="http://www.w3.org/2000/svg">
<path d="M15.7539 14.2559H14.9639L14.6839 13.9859C15.6639 12.8459 16.2539 11.3659 16.2539 9.75586C16.2539 6.16586 13.3439 3.25586 9.75391 3.25586C6.16391 3.25586 3.25391 6.16586 3.25391 9.75586C3.25391 13.3459 6.16391 16.2559 9.75391 16.2559C11.3639 16.2559 12.8439 15.6659 13.9839 14.6859L14.2539 14.9659V15.7559L19.2539 20.7459L20.7439 19.2559L15.7539 14.2559ZM9.75391 14.2559C7.26391 14.2559 5.25391 12.2459 5.25391 9.75586C5.25391 7.26586 7.26391 5.25586 9.75391 5.25586C12.2439 5.25586 14.2539 7.26586 14.2539 9.75586C14.2539 12.2459 12.2439 14.2559 9.75391 14.2559Z" fill="#666666"/>
</svg>
