<svg width="71" height="76" viewBox="0 0 71 76" fill="none" xmlns="http://www.w3.org/2000/svg">
<path d="M0 19.239V54.2771L35.4442 74.4359M0 19.239L35.4442 37.478M0 19.239L12.2405 12.9026M35.4442 74.4359V37.478M35.4442 74.4359L71.3673 54.2771V19.239M35.4442 37.478L47.9242 31.1416M71.3673 19.239L35.4442 1L23.0571 7.36449M71.3673 19.239L58.8605 25.6035M12.2405 12.9026L47.9242 31.1416M12.2405 12.9026L23.0571 7.36449M47.9242 31.1416L58.8605 25.6035M47.9242 31.1416L48.2911 45.2078C48.2966 45.4163 48.5722 45.4866 48.6769 45.3062L54.349 35.5259L58.4789 42.0476C58.5898 42.2226 58.8605 42.1441 58.8605 41.9369V25.6035M58.8605 25.6035L23.0571 7.36449" stroke="black" stroke-width="2.41923"/>
</svg>
