<svg width="80" height="80" viewBox="0 0 80 80" fill="none" xmlns="http://www.w3.org/2000/svg">
<path d="M40.6784 13.6505L44.8314 6.26275L53.1374 6.26275L57.3046 13.6758L53.1516 21.0636L44.8456 21.0636L40.6784 13.6505Z" stroke="black" stroke-width="2.49941"/>
<path d="M40.6784 34.7209L44.8314 27.3331L53.1374 27.3331L57.3046 34.7462L53.1516 42.134L44.8456 42.134L40.6784 34.7209Z" stroke="black" stroke-width="2.49941"/>
<path d="M4.99093 34.7209L9.14391 27.3331L17.4499 27.3331L21.6171 34.7462L17.4641 42.134L9.15814 42.134L4.99093 34.7209Z" stroke="black" stroke-width="2.49941"/>
<path d="M40.6784 55.7892L44.8314 48.4014L53.1374 48.4014L57.3046 55.8145L53.1516 63.2023L44.8456 63.2023L40.6784 55.7892Z" stroke="black" stroke-width="2.49941"/>
<path d="M22.8347 45.2541L26.9877 37.8663L35.2936 37.8663L39.4608 45.2794L35.3079 52.6672L27.0019 52.6672L22.8347 45.2541Z" stroke="black" stroke-width="2.49941"/>
<path d="M58.3816 45.2541L62.5345 37.8663L70.8405 37.8663L75.0077 45.2794L70.8547 52.6672L62.5488 52.6672L58.3816 45.2541Z" stroke="black" stroke-width="2.49941"/>
<path d="M22.8347 66.3224L26.9877 58.9346L35.2936 58.9346L39.4608 66.3477L35.3079 73.7355L27.0019 73.7355L22.8347 66.3224Z" stroke="black" stroke-width="2.49941"/>
<path d="M22.8347 24.1857L26.9877 16.7979L35.2936 16.7979L39.4608 24.211L35.3079 31.5988L27.0019 31.5988L22.8347 24.1857Z" stroke="black" stroke-width="2.49941"/>
</svg>
