<svg width="80" height="80" viewBox="0 0 80 80" fill="none" xmlns="http://www.w3.org/2000/svg">
<path d="M43.1386 2.97013C41.8547 0.368769 38.1453 0.368757 36.8614 2.97013L27.3645 22.2129C27.2917 22.3605 27.1509 22.4628 26.9881 22.4864L5.75237 25.5722C2.8816 25.9893 1.73531 29.5172 3.81262 31.5421L19.1789 46.5205C19.2968 46.6354 19.3505 46.8009 19.3227 46.9631L15.6952 68.113C15.2048 70.9722 18.2058 73.1525 20.7735 71.8026L39.7673 61.817C39.913 61.7404 40.087 61.7404 40.2327 61.817L59.2264 71.8026C61.7941 73.1525 64.7952 70.9722 64.3048 68.113L60.6773 46.9631C60.6495 46.8009 60.7032 46.6354 60.8211 46.5205L76.1874 31.5421C78.2647 29.5172 77.1184 25.9893 74.2476 25.5722L53.0119 22.4864C52.8491 22.4628 52.7083 22.3605 52.6355 22.2129L43.1386 2.97013Z" stroke="black" stroke-width="3"/>
</svg>
