<svg width="17" height="21" viewBox="0 0 17 21" fill="none" xmlns="http://www.w3.org/2000/svg">
<g clip-path="url(#clip0_404_3063)">
<path fill-rule="evenodd" clip-rule="evenodd" d="M7.8373 20.2793C8.23249 20.2793 15.2937 12.7347 15.2937 8.6166C15.2937 4.49852 11.9553 1.16016 7.8373 1.16016C3.71922 1.16016 0.380859 4.49852 0.380859 8.6166C0.380859 12.7347 7.44212 20.2793 7.8373 20.2793ZM7.83731 12.3461C9.92518 12.3461 11.6177 10.6535 11.6177 8.56561C11.6177 6.47774 9.92518 4.78519 7.83731 4.78519C5.74945 4.78519 4.0569 6.47774 4.0569 8.56561C4.0569 10.6535 5.74945 12.3461 7.83731 12.3461Z" fill="#1DAEEF"/>
<path fill-rule="evenodd" clip-rule="evenodd" d="M0.380859 8.6166C0.380859 12.7347 7.44212 20.2793 7.8373 20.2793V12.3461C5.74944 12.346 4.0569 10.6535 4.0569 8.56561C4.0569 6.47775 5.74944 4.7852 7.8373 4.78519V1.16016C3.71922 1.16016 0.380859 4.49852 0.380859 8.6166Z" fill="#3EC3FF"/>
</g>
<defs>
<clipPath id="clip0_404_3063">
<rect width="16" height="20" fill="white" transform="translate(0.275391 0.964844)"/>
</clipPath>
</defs>
</svg>
