<svg width="17" height="21" viewBox="0 0 17 21" fill="none" xmlns="http://www.w3.org/2000/svg">
<g clip-path="url(#clip0_404_1346)">
<path fill-rule="evenodd" clip-rule="evenodd" d="M8.54237 19.4394C8.93756 19.4394 15.9988 11.8948 15.9988 7.77675C15.9988 3.65867 12.6604 0.320312 8.54237 0.320312C4.42429 0.320312 1.08594 3.65867 1.08594 7.77675C1.08594 11.8948 8.14719 19.4394 8.54237 19.4394ZM8.54238 11.5062C10.6303 11.5062 12.3228 9.81363 12.3228 7.72576C12.3228 5.63789 10.6303 3.94534 8.54238 3.94534C6.45452 3.94534 4.76197 5.63789 4.76197 7.72576C4.76197 9.81363 6.45452 11.5062 8.54238 11.5062Z" fill="#1DAEEF"/>
<path fill-rule="evenodd" clip-rule="evenodd" d="M1.08594 7.77675C1.08594 11.8948 8.14719 19.4394 8.54237 19.4394V11.5062C6.45451 11.5061 4.76197 9.81362 4.76197 7.72576C4.76197 5.6379 6.45451 3.94535 8.54237 3.94534V0.320312C4.42429 0.320312 1.08594 3.65867 1.08594 7.77675Z" fill="#3EC3FF"/>
</g>
<defs>
<clipPath id="clip0_404_1346">
<rect width="16" height="20" fill="white" transform="translate(0.980469 0.125)"/>
</clipPath>
</defs>
</svg>
