<svg width="17" height="21" viewBox="0 0 17 21" fill="none" xmlns="http://www.w3.org/2000/svg">
<g clip-path="url(#clip0_404_3057)">
<path fill-rule="evenodd" clip-rule="evenodd" d="M7.60487 19.8925C8.00006 19.8925 15.0613 12.3479 15.0613 8.22988C15.0613 4.1118 11.7229 0.773438 7.60487 0.773438C3.48679 0.773438 0.148438 4.1118 0.148438 8.22988C0.148438 12.3479 7.20969 19.8925 7.60487 19.8925ZM7.60488 11.9593C9.69275 11.9593 11.3853 10.2668 11.3853 8.17889C11.3853 6.09102 9.69275 4.39847 7.60488 4.39847C5.51702 4.39847 3.82447 6.09102 3.82447 8.17889C3.82447 10.2668 5.51702 11.9593 7.60488 11.9593Z" fill="#1DAEEF"/>
<path fill-rule="evenodd" clip-rule="evenodd" d="M0.148438 8.22988C0.148438 12.3479 7.20969 19.8925 7.60487 19.8925V11.9593C5.51701 11.9592 3.82447 10.2667 3.82447 8.17889C3.82447 6.09103 5.51701 4.39848 7.60487 4.39847V0.773438C3.48679 0.773438 0.148438 4.1118 0.148438 8.22988Z" fill="#3EC3FF"/>
</g>
<defs>
<clipPath id="clip0_404_3057">
<rect width="16" height="20" fill="white" transform="translate(0.0429688 0.578125)"/>
</clipPath>
</defs>
</svg>
