<svg width="17" height="21" viewBox="0 0 17 21" fill="none" xmlns="http://www.w3.org/2000/svg">
<g clip-path="url(#clip0_404_1379)">
<path fill-rule="evenodd" clip-rule="evenodd" d="M7.60683 20.1035C8.00202 20.1035 15.0633 12.5589 15.0633 8.44081C15.0633 4.32273 11.7249 0.984375 7.60683 0.984375C3.48875 0.984375 0.150391 4.32273 0.150391 8.44081C0.150391 12.5589 7.21165 20.1035 7.60683 20.1035ZM7.60684 12.1703C9.69471 12.1703 11.3873 10.4777 11.3873 8.38982C11.3873 6.30196 9.69471 4.60941 7.60684 4.60941C5.51898 4.60941 3.82643 6.30196 3.82643 8.38982C3.82643 10.4777 5.51898 12.1703 7.60684 12.1703Z" fill="#1DAEEF"/>
<path fill-rule="evenodd" clip-rule="evenodd" d="M0.150391 8.44081C0.150391 12.5589 7.21165 20.1035 7.60683 20.1035V12.1703C5.51897 12.1702 3.82643 10.4777 3.82643 8.38982C3.82643 6.30196 5.51897 4.60942 7.60683 4.60941V0.984375C3.48875 0.984375 0.150391 4.32273 0.150391 8.44081Z" fill="#3EC3FF"/>
</g>
<defs>
<clipPath id="clip0_404_1379">
<rect width="16" height="20" fill="white" transform="translate(0.0449219 0.789062)"/>
</clipPath>
</defs>
</svg>
