<svg width="17" height="21" viewBox="0 0 17 21" fill="none" xmlns="http://www.w3.org/2000/svg">
<g clip-path="url(#clip0_404_3060)">
<path fill-rule="evenodd" clip-rule="evenodd" d="M8.13027 19.6113C8.52546 19.6113 15.5867 12.0667 15.5867 7.94863C15.5867 3.83055 12.2483 0.492188 8.13027 0.492188C4.01219 0.492188 0.673828 3.83055 0.673828 7.94863C0.673828 12.0667 7.73509 19.6113 8.13027 19.6113ZM8.13028 11.6781C10.2181 11.6781 11.9107 9.98551 11.9107 7.89764C11.9107 5.80977 10.2181 4.11722 8.13028 4.11722C6.04242 4.11722 4.34987 5.80977 4.34987 7.89764C4.34987 9.98551 6.04242 11.6781 8.13028 11.6781Z" fill="#1DAEEF"/>
<path fill-rule="evenodd" clip-rule="evenodd" d="M0.673828 7.94863C0.673828 12.0667 7.73509 19.6113 8.13027 19.6113V11.6781C6.04241 11.678 4.34987 9.9855 4.34987 7.89764C4.34987 5.80978 6.04241 4.11723 8.13027 4.11722V0.492188C4.01219 0.492188 0.673828 3.83055 0.673828 7.94863Z" fill="#3EC3FF"/>
</g>
<defs>
<clipPath id="clip0_404_3060">
<rect width="16" height="20" fill="white" transform="translate(0.568359 0.296875)"/>
</clipPath>
</defs>
</svg>
